<svg width="40" height="40" viewBox="0 0 40 40" fill="none" xmlns="http://www.w3.org/2000/svg">
<g clip-path="url(#clip0_14273_23447)">
<rect width="40" height="40" rx="20" fill="#1F2A37" fill-opacity="0.4"/>
<path d="M28.25 18.5001V27.5001C28.25 27.8979 28.092 28.2795 27.8107 28.5608C27.5294 28.8421 27.1478 29.0001 26.75 29.0001H13.25C12.8522 29.0001 12.4706 28.8421 12.1893 28.5608C11.908 28.2795 11.75 27.8979 11.75 27.5001V18.5001C11.75 18.1023 11.908 17.7207 12.1893 17.4394C12.4706 17.1581 12.8522 17.0001 13.25 17.0001H15.5C15.6989 17.0001 15.8897 17.0791 16.0303 17.2198C16.171 17.3604 16.25 17.5512 16.25 17.7501C16.25 17.949 16.171 18.1398 16.0303 18.2804C15.8897 18.4211 15.6989 18.5001 15.5 18.5001H13.25V27.5001H26.75V18.5001H24.5C24.3011 18.5001 24.1103 18.4211 23.9697 18.2804C23.829 18.1398 23.75 17.949 23.75 17.7501C23.75 17.5512 23.829 17.3604 23.9697 17.2198C24.1103 17.0791 24.3011 17.0001 24.5 17.0001H26.75C27.1478 17.0001 27.5294 17.1581 27.8107 17.4394C28.092 17.7207 28.25 18.1023 28.25 18.5001ZM16.7806 14.5307L19.25 12.0604V20.7501C19.25 20.949 19.329 21.1398 19.4697 21.2804C19.6103 21.4211 19.8011 21.5001 20 21.5001C20.1989 21.5001 20.3897 21.4211 20.5303 21.2804C20.671 21.1398 20.75 20.949 20.75 20.7501V12.0604L23.2194 14.5307C23.3601 14.6715 23.551 14.7505 23.75 14.7505C23.949 14.7505 24.1399 14.6715 24.2806 14.5307C24.4214 14.39 24.5004 14.1991 24.5004 14.0001C24.5004 13.8011 24.4214 13.6102 24.2806 13.4695L20.5306 9.71948C20.461 9.64974 20.3783 9.59443 20.2872 9.55668C20.1962 9.51894 20.0986 9.49951 20 9.49951C19.9014 9.49951 19.8038 9.51894 19.7128 9.55668C19.6217 9.59443 19.539 9.64974 19.4694 9.71948L15.7194 13.4695C15.5786 13.6102 15.4996 13.8011 15.4996 14.0001C15.4996 14.1991 15.5786 14.39 15.7194 14.5307C15.8601 14.6715 16.051 14.7505 16.25 14.7505C16.449 14.7505 16.6399 14.6715 16.7806 14.5307Z" fill="white"/>
</g>
<defs>
<clipPath id="clip0_14273_23447">
<rect width="40" height="40" rx="20" fill="white"/>
</clipPath>
</defs>
</svg>
